<?xml version="1.0" encoding="iso-8859-1"?>
<!-- Uploaded to: SVG Repo, www.svgrepo.com, Generator: SVG Repo Mixer Tools -->
<svg fill="#000000" version="1.1" id="Layer_1" xmlns="http://www.w3.org/2000/svg" xmlns:xlink="http://www.w3.org/1999/xlink" 
	 viewBox="0 0 511.998 511.998" xml:space="preserve">
<g>
	<g>
		<path d="M503.449,69.114c-15.556,0-23.752,7.08-30.337,12.769c-5.786,4.998-9.966,8.609-19.158,8.609
			c-9.192,0-13.372-3.611-19.158-8.609c-6.585-5.689-14.782-12.769-30.337-12.769c-15.555,0-23.75,7.08-30.334,12.769
			c-5.785,4.998-9.964,8.609-19.154,8.609c-9.19,0-13.37-3.611-19.155-8.609c-6.585-5.689-14.781-12.769-30.335-12.769
			c-15.555,0-23.75,7.08-30.334,12.769c-5.785,4.998-9.964,8.609-19.154,8.609s-13.369-3.611-19.152-8.609
			c-6.584-5.689-14.78-12.769-30.333-12.769c-15.555,0-23.751,7.08-30.335,12.769c-5.785,4.998-9.964,8.609-19.155,8.609
			c-9.189,0-13.369-3.611-19.154-8.609c-6.584-5.689-14.78-12.769-30.334-12.769c-15.555,0-23.75,7.08-30.334,12.769
			c-5.785,4.998-9.964,8.609-19.155,8.609c-9.19,0-13.37-3.611-19.154-8.609c-6.588-5.689-14.783-12.769-30.337-12.769
			C3.829,69.114,0,72.943,0,77.665c0,4.722,3.828,8.551,8.551,8.551c9.19,0,13.37,3.611,19.154,8.609
			c6.585,5.689,14.781,12.769,30.334,12.769c15.555,0,23.75-7.08,30.335-12.769c5.785-4.998,9.964-8.609,19.155-8.609
			c9.189,0,13.369,3.611,19.154,8.609c6.584,5.689,14.78,12.769,30.334,12.769c15.555,0,23.75-7.08,30.335-12.769
			c5.785-4.998,9.964-8.609,19.155-8.609c9.189,0,13.369,3.611,19.152,8.609c6.584,5.689,14.78,12.769,30.333,12.769
			c15.555,0,23.75-7.08,30.334-12.769c5.785-4.998,9.964-8.609,19.154-8.609c9.19,0,13.37,3.611,19.155,8.609
			c6.586,5.689,14.781,12.769,30.335,12.769c15.555,0,23.75-7.08,30.334-12.769c5.785-4.998,9.964-8.609,19.154-8.609
			c9.191,0,13.372,3.611,19.158,8.609c6.585,5.689,14.782,12.769,30.337,12.769c15.556,0,23.752-7.08,30.337-12.769
			c5.786-4.998,9.966-8.609,19.158-8.609c4.722,0,8.551-3.829,8.551-8.551C511.998,72.943,508.171,69.114,503.449,69.114z"/>
	</g>
</g>
<g>
	<g>
		<polygon points="117.578,271.463 117.578,439.075 135.749,433.569 135.749,281.925 		"/>
	</g>
</g>
<g>
	<g>
		<path d="M152.852,304.633v98.017c12.763,11.247,29.214,20.452,48.073,27.209v-152.36
			C181.803,284.35,165.389,293.597,152.852,304.633z"/>
	</g>
</g>
<g>
	<g>
		<rect x="241.538" y="184.555" width="72.717" height="24.05"/>
	</g>
</g>
<g>
	<g>
		<path d="M54.87,294.175c-7.078,0-14.964,10.454-14.964,25.455c0,15.002,7.886,25.456,14.964,25.456
			c7.078,0,14.965-10.454,14.965-25.456C69.834,304.629,61.948,294.175,54.87,294.175z"/>
	</g>
</g>
<g>
	<g>
		<path d="M391.928,137.523c-5.894,0-10.689,4.795-10.689,10.689s4.795,10.689,10.689,10.689c5.894,0,10.689-4.795,10.689-10.689
			C402.617,142.318,397.822,137.523,391.928,137.523z"/>
	</g>
</g>
<g>
	<g>
		<path d="M278.992,332.26c-11.788,0-21.378,9.589-21.378,21.378c0,11.788,9.59,21.378,21.378,21.378
			c11.788,0,21.378-9.59,21.378-21.378C300.37,341.85,290.78,332.26,278.992,332.26z"/>
	</g>
</g>
<g>
	<g>
		<path d="M54.87,362.189c-7.078,0-14.964,10.454-14.964,25.456c0,15.001,7.886,25.455,14.964,25.455
			c7.078,0,14.965-10.454,14.965-25.455C69.834,372.642,61.948,362.189,54.87,362.189z"/>
	</g>
</g>
<g>
	<g>
		<path d="M131.118,169.233c-7.465,0-13.54,6.075-13.54,13.54s6.075,13.54,13.54,13.54s13.54-6.075,13.54-13.54
			S138.584,169.233,131.118,169.233z"/>
	</g>
</g>
<g>
	<g>
		<path d="M447.51,224.913c-6.234,0-11.306,5.071-11.306,11.305c0,6.234,5.072,11.305,11.306,11.305
			c6.234,0,11.306-5.071,11.306-11.305C458.816,229.984,453.744,224.913,447.51,224.913z"/>
	</g>
</g>
<g>
	<g>
		<path d="M218.022,225.707v28.836c19.703-4.811,40.54-7.256,62.113-7.256c19.896,0,39.229,2.092,57.635,6.212v-27.792H218.022z"/>
	</g>
</g>
<g>
	<g>
		<path d="M354.873,275.939v155.416c12.675-4.218,24.434-9.526,34.913-15.878c27.817-16.863,43.137-38.826,43.137-61.843
			C432.923,321.538,402.649,291.771,354.873,275.939z"/>
	</g>
</g>
<g>
	<g>
		<path d="M280.136,264.39c-21.697,0-42.554,2.626-62.108,7.795v162.952c19.216,5.041,40.281,7.746,62.108,7.746
			c20.097,0,39.57-2.297,57.635-6.648V271.058C319.484,266.636,300.131,264.39,280.136,264.39z M278.992,392.118
			c-21.218,0-38.48-17.262-38.48-38.48c0-21.219,17.263-38.48,38.48-38.48c21.219,0,38.48,17.262,38.48,38.48
			C317.472,374.856,300.211,392.118,278.992,392.118z"/>
	</g>
</g>
<g>
	<g>
		<rect x="74.106" y="346.716" width="31.711" height="17.102"/>
	</g>
</g>
</svg>